<?xml version="1.0" encoding="utf-8"?>
<!-- Generator: Adobe Illustrator 28.0.0, SVG Export Plug-In . SVG Version: 6.00 Build 0)  -->
<svg version="1.1" id="Layer_1" xmlns="http://www.w3.org/2000/svg" xmlns:xlink="http://www.w3.org/1999/xlink" x="0px" y="0px"
	 viewBox="0 0 64 64" style="enable-background:new 0 0 64 64;" xml:space="preserve">
<style type="text/css">
	.st0{fill:#BA0C2F;}
</style>
<path class="st0" d="M48.1,31.1h-3.8c-2.1,0-3.9,1.7-3.9,3.9c0,2.1,1.7,3.9,3.9,3.9h3.8c1.6,0,2.9-1.3,2.9-2.9V34
	C51,32.4,49.7,31.1,48.1,31.1z M49,35.9c0,0.5-0.4,0.9-0.9,0.9h-3.8c-1,0-1.9-0.8-1.9-1.9c0-1,0.8-1.9,1.9-1.9h3.8
	c0.5,0,0.9,0.4,0.9,0.9V35.9z M19.4,31.1h-3.8c-1.6,0-2.9,1.3-2.9,2.9v1.9c0,1.6,1.3,2.9,2.9,2.9h3.8c2.1,0,3.9-1.7,3.9-3.9
	C23.3,32.8,21.5,31.1,19.4,31.1z M19.4,36.8h-3.8c-0.5,0-0.9-0.4-0.9-0.9V34c0-0.5,0.4-0.9,0.9-0.9h3.8c1,0,1.9,0.8,1.9,1.9
	C21.3,36,20.4,36.8,19.4,36.8z M38.5,36.8c0,0.6-0.4,1-1,1H26.1c-0.6,0-1-0.4-1-1s0.4-1,1-1h11.5C38.1,35.8,38.5,36.3,38.5,36.8z
	 M38.5,33c0,0.6-0.4,1-1,1H26.1c-0.6,0-1-0.4-1-1c0-0.6,0.4-1,1-1h11.5C38.1,32,38.5,32.5,38.5,33z M55.7,18.6h-1
	c-1.6,0-2.9,1.3-2.9,2.9V24l-0.3,0.3l-2.9-8.2c-1.1-3.1-4-5.1-7.2-5.1H22.2c-3.2,0-6.2,2.1-7.2,5.1L12,24.3L11.8,24v-2.5
	c0-1.6-1.3-2.9-2.9-2.9h-1C6.3,18.6,5,20,5,21.6v1.9c0,1.1,0.9,2,2,2h3.4l0.8,0.8c-2,1.6-3.3,4-3.3,6.8v8.6c0,0.2,0,0.4,0.1,0.6
	c0,0.1-0.1,0.2-0.1,0.3v7.6c0,1.6,1.3,2.9,2.9,2.9h3.8c1.6,0,2.9-1.3,2.9-2.9v-3.8h28.6v3.8c0,1.6,1.3,2.9,2.9,2.9h3.8
	c1.6,0,2.9-1.3,2.9-2.9v-7.6c0-0.1,0-0.2-0.1-0.3c0-0.2,0.1-0.4,0.1-0.6V33c0-2.8-1.3-5.2-3.3-6.8l0.8-0.8h3.4c1.1,0,2-0.9,2-2v-1.9
	C58.6,20,57.3,18.6,55.7,18.6z M16.8,16.8c0.8-2.3,3-3.8,5.4-3.8h19.2c2.4,0,4.6,1.5,5.4,3.8l2.9,8c-0.8-0.2-1.7-0.4-2.5-0.4H16.5
	c-0.9,0-1.7,0.1-2.5,0.4L16.8,16.8z M9.8,23.4l-2.8,0v-1.9c0-0.5,0.4-0.9,0.9-0.9h1c0.5,0,0.9,0.4,0.9,0.9V23.4z M15.5,50.2
	c0,0.5-0.4,0.9-0.9,0.9h-3.8c-0.5,0-0.9-0.4-0.9-0.9v-4.7c0.8,0.6,1.8,0.9,2.8,0.9h2.8V50.2z M52.8,51.1H49c-0.5,0-0.9-0.4-0.9-0.9
	v-3.8h2.8c1.1,0,2-0.4,2.8-0.9v4.7C53.8,50.7,53.3,51.1,52.8,51.1z M53.7,33v8.6c0,1.6-1.3,2.8-2.8,2.8h-3.8c0,0,0,0,0,0s0,0,0,0
	H16.5c0,0,0,0,0,0s0,0,0,0h-3.8c-1.6,0-2.8-1.3-2.8-2.8V33c0-3.7,3-6.6,6.6-6.6h30.6C50.8,26.4,53.7,29.4,53.7,33z M56.6,23.4h-2.8
	v-1.9c0-0.5,0.4-0.9,0.9-0.9h1c0.5,0,0.9,0.4,0.9,0.9V23.4z"/>
</svg>
