<?xml version="1.0" encoding="UTF-8"?>
<svg id="b" data-name="icons_lineart #ba0c2f red fill" xmlns="http://www.w3.org/2000/svg" viewBox="0 0 64 64">
  <defs>
    <style>
      .c {
        fill: #b90c2f;
        stroke-width: 0px;
      }
    </style>
  </defs>
  <path class="c" d="m45.49,35.26c1.08-.35,1.91-.95,2.44-1.79.61-.99.77-2.23.46-3.63,1.57-.98,2.13-2.16,2.32-3.02.2-.9.17-2.26-.94-3.9,1.11-1.64,1.14-3,.94-3.9-.19-.86-.75-2.04-2.32-3.02.4-1.82-.06-3.04-.55-3.77-.49-.72-1.44-1.59-3.26-1.89-.3-1.81-1.17-2.77-1.89-3.26-.73-.49-1.94-.95-3.77-.55-.98-1.57-2.15-2.13-3.02-2.32-.9-.2-2.26-.17-3.9.94-1.64-1.11-3.01-1.14-3.9-.94-.87.19-2.04.75-3.02,2.32-1.82-.4-3.04.06-3.77.55-.72.49-1.59,1.44-1.89,3.26-1.81.3-2.77,1.17-3.26,1.89-.49.73-.95,1.94-.55,3.77-1.57.98-2.13,2.15-2.32,3.02-.2.9-.17,2.26.94,3.9-1.11,1.64-1.14,3-.94,3.9.19.86.75,2.04,2.32,3.02-.3,1.4-.15,2.64.46,3.63.52.84,1.36,1.45,2.44,1.79l-5.41,22.16,8.58-5.16,5.24,8.53,4.88-20c.07-.04.14-.08.2-.12.07.04.14.08.2.12l4.88,20,5.24-8.53,8.58,5.16-5.41-22.16Zm-27.71-2.85c-.51-.83-.31-1.96-.04-2.76l.27-.83-.78-.38c-.78-.38-1.75-1.04-1.97-2.05-.23-1.05.42-2.12,1.01-2.84l.52-.63-.52-.63c-.59-.72-1.24-1.79-1.01-2.84.22-1.01,1.2-1.67,1.97-2.05l.78-.38-.27-.83c-.27-.83-.48-2,.08-2.83.56-.82,1.7-1.06,2.57-1.11l.88-.05.05-.88c.05-.86.29-2.01,1.11-2.57.83-.56,1.99-.36,2.83-.08l.83.27.38-.78c.38-.78,1.04-1.75,2.05-1.97,1.05-.23,2.12.42,2.84,1.01l.63.52.63-.52c.72-.59,1.79-1.24,2.84-1.01,1.01.22,1.67,1.2,2.05,1.97l.38.78.83-.27c.83-.27,1.99-.48,2.83.08.82.56,1.06,1.7,1.11,2.57l.05.88.88.05c.86.05,2.01.29,2.57,1.11.56.83.36,2,.08,2.83l-.27.83.78.38c.78.38,1.75,1.04,1.97,2.05.23,1.05-.42,2.12-1.01,2.84l-.52.63.52.63c.59.72,1.24,1.79,1.01,2.84-.22,1.01-1.2,1.67-1.97,2.05l-.78.38.27.83c.26.8.47,1.93-.04,2.76-.46.74-1.39,1.02-2.09,1.12-.17.02-.34.04-.52.05l-.88.05-.05.88c-.05.86-.29,2.01-1.11,2.57-.83.56-1.99.36-2.83.08l-.83-.27-.38.78c-.5,1.03-1.15,1.69-1.87,1.92-.58.18-1.23.09-1.94-.26-.05-.03-.11-.04-.16-.07-.32-.17-.63-.38-.92-.63l-.26-.22.06-.24-.21.11-.22-.18-.22.18-.21-.11.06.24-.26.22c-.3.24-.61.45-.92.63-.77.42-1.48.53-2.1.33-.72-.23-1.37-.89-1.87-1.92l-.38-.78-.83.27c-.83.27-2,.48-2.83-.08-.82-.56-1.06-1.7-1.11-2.57l-.05-.88-.88-.05c-.18-.01-.35-.03-.52-.05-.7-.1-1.63-.38-2.09-1.12Zm8.33,23.25l-3.76-6.13-6.16,3.71,3.87-15.87s.05.07.07.11c.06.09.11.18.17.26.04.05.08.11.11.16.06.08.12.15.19.22.04.04.07.08.11.12.07.07.14.14.21.2.03.03.06.06.09.08.1.08.2.16.3.23.73.49,1.94.95,3.77.55.7,1.12,1.61,1.88,2.65,2.22.57.18,1.18.23,1.79.15l-3.42,13.99Zm15.55-6.13l-3.76,6.13-3.42-13.99s.03,0,.05,0c.17.02.34.04.51.04.08,0,.15-.01.23-.02.07,0,.14,0,.22-.02.27-.03.53-.07.78-.16,1.04-.33,1.95-1.09,2.65-2.22,1.82.4,3.04-.06,3.77-.55.1-.07.2-.14.3-.23.03-.03.06-.06.09-.08.07-.06.14-.13.21-.2.04-.04.07-.08.11-.12.06-.07.13-.14.19-.22.04-.05.08-.1.11-.16.06-.08.11-.17.17-.26.02-.04.05-.07.07-.11l3.87,15.87-6.16-3.71Z"/>
  <path class="c" d="m32,37.06c7.8,0,14.14-6.34,14.14-14.14s-6.34-14.14-14.14-14.14-14.14,6.34-14.14,14.14,6.34,14.14,14.14,14.14Zm0-26.28c6.7,0,12.14,5.45,12.14,12.14s-5.45,12.14-12.14,12.14-12.14-5.45-12.14-12.14,5.45-12.14,12.14-12.14Z"/>
  <path class="c" d="m26.76,30.37l5.18-2.72,5.18,2.72-.99-5.77,4.19-4.09-5.79-.84-2.59-5.25-2.59,5.25-5.79.84,4.19,4.09-.99,5.77Zm3.92-8.87l1.26-2.56,1.26,2.56,2.82.41-2.04,1.99.48,2.81-2.52-1.33-2.52,1.33.48-2.81-2.04-1.99,2.82-.41Z"/>
</svg>