<?xml version="1.0" encoding="UTF-8"?>
<svg id="b" data-name="icons_lineart #ba0c2f red fill" xmlns="http://www.w3.org/2000/svg" viewBox="0 0 64 64">
  <defs>
    <style>
      .c {
        fill: #b90c2f;
        stroke-width: 0px;
      }
    </style>
  </defs>
  <path class="c" d="m54.7,14.67l-4.39-3.24c-.17-.13-.38-.2-.59-.2h-18.35v-3.82h-2v3.82h-4.06c-.27,0-.52.11-.71.29s-.29.44-.29.71v10c0,.27.11.52.29.71s.44.29.71.29h4.06v1.95h-15.1c-.21,0-.42.07-.59.2l-4.39,3.24c-.26.19-.48.42-.67.67-.5.68-.71,1.53-.59,2.37.13.84.58,1.59,1.26,2.09l4.39,3.24c.17.13.38.2.59.19h15.1v17.41h-5.57v2h13.14v-2h-5.57v-17.41h7.31c.27,0,.52-.11.71-.29s.29-.44.29-.71v-10c0-.27-.11-.52-.29-.71s-.44-.29-.71-.29h-7.31v-1.95h18.35c.21,0,.42-.07.59-.2l4.39-3.23c.4-.3.73-.68.95-1.13.22-.45.34-.94.34-1.44s-.12-.99-.34-1.44c-.22-.45-.55-.83-.95-1.13h0Zm-17.02,20.51H14.6l-4.12-3.04c-.13-.09-.23-.21-.31-.34-.08-.13-.13-.28-.16-.44-.02-.15-.02-.31.02-.46.04-.15.1-.29.2-.42.07-.1.15-.18.25-.25l4.12-3.04h23.08v8Zm16.08-17.24c-.07.09-.15.18-.25.25l-4.12,3.04h-23.08v-8h23.08l4.12,3.05c.25.19.42.47.47.78.05.31-.03.63-.22.88Z"/>
</svg>