<?xml version="1.0" encoding="UTF-8"?>
<svg id="b" data-name="icons_lineart #ba0c2f red fill" xmlns="http://www.w3.org/2000/svg" viewBox="0 0 64 64">
  <defs>
    <style>
      .c {
        fill: #b90c2f;
        stroke-width: 0px;
      }
    </style>
  </defs>
  <path class="c" d="m15.97,42.35c-1.86,0-3.38,1.52-3.38,3.38s1.52,3.38,3.38,3.38,3.38-1.52,3.38-3.38-1.52-3.38-3.38-3.38Zm0,4.76c-.76,0-1.38-.62-1.38-1.38s.62-1.38,1.38-1.38,1.38.62,1.38,1.38-.62,1.38-1.38,1.38Z"/>
  <path class="c" d="m50.5,42.35c-1.86,0-3.38,1.52-3.38,3.38s1.52,3.38,3.38,3.38,3.38-1.52,3.38-3.38-1.52-3.38-3.38-3.38Zm0,4.76c-.76,0-1.38-.62-1.38-1.38s.62-1.38,1.38-1.38,1.38.62,1.38,1.38-.62,1.38-1.38,1.38Z"/>
  <path class="c" d="m58.81,40.38v-5.1l-6.17-.96-1.52-9.62h-.73l-.39-3.72h-4.54l-.32,3.72h-3.1v-7.9H5.13v23.52h-1.68v6.35h8.14v-.99c.04-2.38,2.01-4.32,4.39-4.32s4.34,1.94,4.38,4.32v.99h19.68v.07h6.09v-1c0-2.42,1.97-4.38,4.38-4.38s4.38,1.97,4.38,4.38v1h6.08v-6.35h-2.16Zm-11.52-17.41h.9l.18,1.72h-1.23l.15-1.72Zm-2.33,3.72h4.45l1.18,7.49h-8.56v-7.49h2.93Zm-4.93-7.9v15.39H7.13v-15.39h32.9Zm-17.77,25.86c-.51-3.01-3.15-5.31-6.29-5.31s-5.77,2.31-6.28,5.31h-4.24v-2.35h1.68v-6.13h32.9v8.48h-17.77Zm36.71.07h-2.16c-.48-3.05-3.13-5.38-6.3-5.38s-5.82,2.34-6.3,5.38h-2.16v-8.55h9.61l5.17.81v5.39h2.16v2.35Z"/>
  <path class="c" d="m19.17,32.73h5.98v-3.37h3.37v-5.98h-3.37v-3.37h-5.98v3.37h-3.37v5.98h3.37v3.37Zm-1.37-5.37v-1.98h3.37v-3.37h1.98v3.37h3.37v1.98h-3.37v3.37h-1.98v-3.37h-3.37Z"/>
  <path class="c" d="m45.17,18.88c.18.33.52.52.88.52.16,0,.33-.04.48-.12.48-.27.66-.87.4-1.36l-1.37-2.51c-.26-.48-.87-.66-1.36-.4-.48.27-.66.87-.4,1.36l1.37,2.51Z"/>
  <path class="c" d="m48.95,19.28c.15.08.32.12.48.12.35,0,.7-.19.88-.52l1.37-2.51c.26-.48.09-1.09-.4-1.36-.48-.26-1.09-.09-1.36.4l-1.37,2.51c-.26.48-.09,1.09.4,1.36Z"/>
</svg>