<?xml version="1.0" encoding="UTF-8"?>
<svg id="b" data-name="icons_lineart #ba0c2f red fill" xmlns="http://www.w3.org/2000/svg" viewBox="0 0 64 64">
  <defs>
    <style>
      .c {
        fill: #b90c2f;
        stroke-width: 0px;
      }
    </style>
  </defs>
  <path class="c" d="m30.64,45.29c.3.39.76.61,1.25.61.49,0,.95-.23,1.24-.61.03-.04,3.29-4.26,6.49-9.37,4.4-7.05,6.63-12.46,6.63-16.08,0-7.92-6.44-14.36-14.36-14.36s-14.36,6.44-14.36,14.36c0,3.69,2.23,9.12,6.63,16.14,3.22,5.14,6.45,9.27,6.48,9.3Zm1.25-37.81c6.82,0,12.36,5.55,12.36,12.36,0,3.24-2.13,8.29-6.33,15.02-2.56,4.09-5.14,7.58-6.04,8.77-.89-1.17-3.48-4.63-6.04-8.71-4.2-6.69-6.33-11.77-6.33-15.08,0-6.82,5.55-12.36,12.36-12.36Z"/>
  <path class="c" d="m32,26.41c3.86,0,7-3.14,7-7s-3.14-7-7-7-7,3.14-7,7,3.14,7,7,7Zm0-12c2.76,0,5,2.24,5,5s-2.24,5-5,5-5-2.24-5-5,2.24-5,5-5Z"/>
  <path class="c" d="m59.76,51.56l-7.31-13.11c-.54-1.24-1.77-2.04-3.13-2.04h-6.44c-.55,0-1,.45-1,1s.45,1,1,1h6.44c.57,0,1.08.33,1.34.92l7.22,12.97v2.69c0,.78-.63,1.41-1.41,1.41H7.29c-.78,0-1.41-.63-1.41-1.41v-2.69l6.93-13.03c.22-.53.74-.87,1.32-.87h6.75c.55,0,1-.45,1-1s-.45-1-1-1h-6.75c-1.39,0-2.63.82-3.12,2.01l-7.01,13.17c-.08.14-.12.31-.12.47v2.94c0,1.88,1.53,3.41,3.41,3.41h49.18c1.88,0,3.41-1.53,3.41-3.41v-2.95c0-.17-.04-.34-.13-.49Z"/>
</svg>